<svg width="99" height="71" viewBox="0 0 99 71" fill="none" xmlns="http://www.w3.org/2000/svg">
<path d="M11.9437 60.3253C11.287 59.9496 10.7681 59.4381 10.3789 58.7826C9.98971 58.1272 9.80322 57.3998 9.80322 56.6084C9.80322 55.8171 9.99782 55.0897 10.3789 54.4343C10.76 53.7788 11.287 53.2672 11.9437 52.8916C12.6005 52.5159 13.3221 52.332 14.1005 52.332C14.7086 52.332 15.2842 52.4359 15.8194 52.6518C16.3545 52.8676 16.8004 53.1633 17.1491 53.555L16.4437 54.2504C16.1842 53.9307 15.8437 53.6829 15.4383 53.515C15.0248 53.3472 14.5869 53.2593 14.1167 53.2593C13.5329 53.2593 12.9816 53.3951 12.4789 53.6749C11.9762 53.9547 11.5708 54.3463 11.2627 54.8499C10.9546 55.3535 10.8086 55.945 10.8086 56.6084C10.8086 57.2719 10.9627 57.8554 11.2627 58.367C11.5627 58.8785 11.9762 59.2622 12.487 59.542C12.9978 59.8217 13.541 59.9576 14.1248 59.9576C14.7086 59.9576 15.1464 59.8697 15.5194 59.7019C15.8923 59.534 16.2167 59.3022 16.4842 59.0224C16.6869 58.8066 16.8491 58.5508 16.9707 58.2471C17.0923 57.9433 17.1734 57.6156 17.2058 57.2479H14.1329V56.3447H18.122C18.1626 56.5605 18.1788 56.7523 18.1788 56.9362C18.1788 57.4398 18.0977 57.9273 17.9356 58.4069C17.7734 58.8865 17.5139 59.3022 17.1572 59.6619C16.395 60.4772 15.3734 60.8849 14.1086 60.8849C13.3302 60.8849 12.6086 60.701 11.9518 60.3253H11.9437ZM20.6112 60.4772C20.149 60.2054 19.7842 59.8297 19.5247 59.3581C19.2653 58.8865 19.1355 58.367 19.1355 57.7915C19.1355 57.2159 19.2653 56.6964 19.5247 56.2248C19.7842 55.7532 20.149 55.3775 20.6112 55.1057C21.0734 54.8339 21.6004 54.698 22.176 54.698C22.7517 54.698 23.2787 54.8339 23.7409 55.1057C24.203 55.3775 24.5679 55.7532 24.8274 56.2248C25.0868 56.6964 25.2165 57.2159 25.2165 57.7915C25.2165 58.367 25.0868 58.8865 24.8274 59.3581C24.5679 59.8297 24.203 60.2054 23.7409 60.4772C23.2787 60.749 22.7517 60.8849 22.176 60.8849C21.6004 60.8849 21.0734 60.749 20.6112 60.4772ZM23.1895 59.7418C23.5058 59.566 23.7571 59.3022 23.9436 58.9665C24.1301 58.6308 24.2274 58.2391 24.2274 57.7915C24.2274 57.3438 24.1301 56.9522 23.9436 56.6164C23.7571 56.2807 23.5058 56.0249 23.1895 55.8491C22.8733 55.6732 22.5409 55.5773 22.176 55.5773C21.8112 55.5773 21.4706 55.6652 21.1544 55.8491C20.8382 56.0249 20.5869 56.2887 20.3923 56.6164C20.2058 56.9522 20.1085 57.3438 20.1085 57.7915C20.1085 58.2391 20.2058 58.6308 20.3923 58.9665C20.5788 59.3022 20.8382 59.558 21.1544 59.7418C21.4706 59.9177 21.8112 60.0136 22.176 60.0136C22.5409 60.0136 22.8814 59.9257 23.1895 59.7418ZM27.5111 60.4772C27.049 60.2054 26.6841 59.8297 26.4246 59.3581C26.1652 58.8865 26.0355 58.367 26.0355 57.7915C26.0355 57.2159 26.1652 56.6964 26.4246 56.2248C26.6841 55.7532 27.049 55.3775 27.5111 55.1057C27.9733 54.8339 28.5003 54.698 29.076 54.698C29.6516 54.698 30.1786 54.8339 30.6408 55.1057C31.103 55.3775 31.4678 55.7532 31.7273 56.2248C31.9867 56.6964 32.1165 57.2159 32.1165 57.7915C32.1165 58.367 31.9867 58.8865 31.7273 59.3581C31.4678 59.8297 31.103 60.2054 30.6408 60.4772C30.1786 60.749 29.6516 60.8849 29.076 60.8849C28.5003 60.8849 27.9733 60.749 27.5111 60.4772ZM30.0895 59.7418C30.4057 59.566 30.657 59.3022 30.8435 58.9665C31.03 58.6308 31.1273 58.2391 31.1273 57.7915C31.1273 57.3438 31.03 56.9522 30.8435 56.6164C30.657 56.2807 30.4057 56.0249 30.0895 55.8491C29.7732 55.6732 29.4408 55.5773 29.076 55.5773C28.7111 55.5773 28.3706 55.6652 28.0543 55.8491C27.7381 56.0249 27.4868 56.2887 27.2922 56.6164C27.1057 56.9522 27.0084 57.3438 27.0084 57.7915C27.0084 58.2391 27.1057 58.6308 27.2922 58.9665C27.4787 59.3022 27.7381 59.558 28.0543 59.7418C28.3706 59.9177 28.7111 60.0136 29.076 60.0136C29.4408 60.0136 29.7814 59.9257 30.0895 59.7418ZM34.1272 62.8752C33.6732 62.5555 33.3732 62.1718 33.2192 61.7242L34.111 61.3485C34.2408 61.6842 34.4597 61.956 34.7678 62.1638C35.0759 62.3716 35.4326 62.4755 35.8543 62.4755C36.4624 62.4755 36.9407 62.3077 37.2732 61.9719C37.6056 61.6362 37.7759 61.1566 37.7759 60.5332V59.8857H37.7272C37.5326 60.1814 37.265 60.4212 36.9083 60.6131C36.5597 60.7969 36.1542 60.8929 35.7083 60.8929C35.1975 60.8929 34.7353 60.765 34.3137 60.5012C33.8921 60.2374 33.5597 59.8697 33.3083 59.4061C33.057 58.9345 32.9354 58.3989 32.9354 57.7994C32.9354 57.1999 33.057 56.6724 33.3083 56.2008C33.5597 55.7292 33.8921 55.3615 34.3137 55.0977C34.7353 54.8339 35.1975 54.706 35.7083 54.706C36.1542 54.706 36.5597 54.802 36.9083 54.9858C37.2569 55.1697 37.5326 55.4174 37.7272 55.7212H37.7759V54.8899H38.7164V60.4932C38.7164 61.4284 38.4569 62.1478 37.9299 62.6354C37.4029 63.123 36.7137 63.3708 35.8543 63.3708C35.157 63.3708 34.5813 63.2109 34.1354 62.8912L34.1272 62.8752ZM36.8191 59.7418C37.111 59.566 37.338 59.3102 37.5164 58.9745C37.6867 58.6387 37.7759 58.2471 37.7759 57.7915C37.7759 57.3358 37.6867 56.9282 37.5164 56.5925C37.3461 56.2567 37.111 56.0089 36.8191 55.8331C36.5272 55.6572 36.2029 55.5693 35.8543 55.5693C35.5056 55.5693 35.1732 55.6572 34.8813 55.8331C34.5894 56.0089 34.3543 56.2647 34.1759 56.6004C34.0056 56.9362 33.9164 57.3278 33.9164 57.7835C33.9164 58.2391 34.0056 58.6387 34.1759 58.9745C34.3462 59.3102 34.5813 59.566 34.8813 59.7418C35.1813 59.9177 35.4975 60.0056 35.8543 60.0056C36.211 60.0056 36.5353 59.9177 36.8191 59.7418ZM40.1677 52.5239H41.1569V60.709H40.1677V52.5239ZM43.7271 60.4932C43.2812 60.2294 42.9325 59.8617 42.6812 59.3901C42.4299 58.9185 42.3082 58.3909 42.3082 57.8074C42.3082 57.2239 42.4298 56.7283 42.665 56.2487C42.9001 55.7771 43.2325 55.4015 43.6704 55.1137C44.1001 54.8339 44.6028 54.6901 45.1785 54.6901C45.7541 54.6901 46.2568 54.8179 46.6866 55.0737C47.1082 55.3295 47.4406 55.6812 47.6676 56.1288C47.8947 56.5765 48.0082 57.096 48.0082 57.6716C48.0082 57.7835 48.0001 57.8874 47.9757 57.9673H43.3055C43.3298 58.4069 43.4352 58.7826 43.6298 59.0864C43.8244 59.3901 44.0677 59.6219 44.3677 59.7738C44.6677 59.9257 44.9758 60.0056 45.3001 60.0056C46.0541 60.0056 46.6379 59.6539 47.0514 58.9505L47.8865 59.3501C47.6352 59.8218 47.2865 60.1974 46.8487 60.4692C46.4109 60.741 45.8839 60.8769 45.2677 60.8769C44.7001 60.8769 44.1974 60.741 43.7515 60.4772L43.7271 60.4932ZM46.9541 57.176C46.9379 56.9362 46.8649 56.6884 46.7433 56.4406C46.6217 56.2008 46.4271 55.993 46.1595 55.8251C45.892 55.6572 45.5595 55.5773 45.1541 55.5773C44.692 55.5773 44.2947 55.7212 43.9785 56.0169C43.6542 56.3127 43.4434 56.6964 43.3461 57.176H46.9541ZM51.5676 52.5239H54.3648C54.827 52.5239 55.2567 52.6278 55.654 52.8356C56.0513 53.0434 56.3594 53.3312 56.6026 53.6989C56.8378 54.0666 56.9594 54.4822 56.9594 54.9538C56.9594 55.4254 56.8378 55.8331 56.6026 56.2088C56.3675 56.5765 56.0513 56.8642 55.654 57.0721C55.2567 57.2799 54.827 57.3838 54.3648 57.3838H52.5405V60.725H51.5676V52.5399V52.5239ZM54.3892 56.4406C54.6973 56.4406 54.9729 56.3686 55.2081 56.2248C55.4432 56.0809 55.6297 55.897 55.7594 55.6652C55.8891 55.4334 55.954 55.1936 55.954 54.9458C55.954 54.698 55.8891 54.4583 55.7594 54.2264C55.6297 53.9946 55.4432 53.8108 55.2081 53.6669C54.9729 53.523 54.6973 53.4511 54.3892 53.4511H52.5486V56.4486H54.3892V56.4406ZM58.9378 60.6371C58.5972 60.4692 58.3378 60.2374 58.1513 59.9416C57.9648 59.6459 57.8756 59.3182 57.8756 58.9425C57.8756 58.327 58.1107 57.8394 58.581 57.4957C59.0513 57.152 59.6513 56.9761 60.3648 56.9761C60.7215 56.9761 61.0539 57.0161 61.3539 57.088C61.662 57.168 61.8972 57.2559 62.0593 57.3518V57.0001C62.0593 56.5685 61.9053 56.2168 61.5972 55.953C61.2891 55.6892 60.8999 55.5613 60.4296 55.5613C60.0972 55.5613 59.7891 55.6333 59.5134 55.7692C59.2378 55.913 59.0188 56.1049 58.8567 56.3607L58.1107 55.8091C58.3459 55.4574 58.6621 55.1856 59.0675 54.9858C59.4729 54.786 59.9269 54.6901 60.4215 54.6901C61.2242 54.6901 61.8566 54.8979 62.3188 55.3135C62.781 55.7292 63.008 56.2967 63.008 57.0081V60.701H62.0674V59.8697H62.0188C61.8485 60.1495 61.5972 60.3893 61.2566 60.5891C60.9161 60.7889 60.535 60.8849 60.1053 60.8849C59.6756 60.8849 59.2864 60.8049 58.9459 60.6371H58.9378ZM61.1188 59.7818C61.4026 59.6139 61.6296 59.3901 61.7999 59.1104C61.9702 58.8306 62.0512 58.5188 62.0512 58.1831C61.8647 58.0632 61.6377 57.9593 61.3702 57.8874C61.1026 57.8154 60.8107 57.7755 60.5107 57.7755C59.9675 57.7755 59.5621 57.8874 59.2864 58.1112C59.0107 58.335 58.8729 58.6148 58.8729 58.9665C58.8729 59.2862 58.9945 59.542 59.2459 59.7418C59.4972 59.9416 59.8053 60.0376 60.1864 60.0376C60.5188 60.0376 60.8269 59.9576 61.1107 59.7898L61.1188 59.7818ZM64.1999 54.9698H65.1404V55.897H65.189C65.3269 55.5533 65.562 55.2896 65.8944 55.0977C66.2269 54.9059 66.5917 54.81 66.9809 54.81C67.1512 54.81 67.2971 54.8179 67.4106 54.8419V55.8331C67.2809 55.8011 67.1025 55.7851 66.8755 55.7851C66.3728 55.7851 65.9674 55.953 65.6512 56.2727C65.335 56.6005 65.1809 57.0241 65.1809 57.5517V60.7889H64.1917V54.9618L64.1999 54.9698ZM70.1998 60.773C69.9971 60.693 69.8268 60.5891 69.6809 60.4612C69.5268 60.3173 69.4133 60.1415 69.3322 59.9496C69.2511 59.7578 69.2187 59.518 69.2187 59.2382V55.7612H68.189V54.8819H69.2187V53.2353H70.1998V54.8819H71.6349V55.7612H70.1998V59.0064C70.1998 59.3342 70.2646 59.574 70.3863 59.7338C70.5322 59.9017 70.743 59.9896 71.0268 59.9896C71.2538 59.9896 71.4646 59.9257 71.6754 59.7978V60.749C71.5619 60.8049 71.4403 60.8369 71.3187 60.8609C71.1971 60.8849 71.043 60.8929 70.8646 60.8929C70.6214 60.8929 70.4025 60.8529 70.1998 60.773ZM72.77 54.8739H73.7105V55.7292H73.7592C73.9214 55.4414 74.1808 55.1936 74.5376 54.9938C74.8943 54.794 75.2754 54.6901 75.6727 54.6901C76.3862 54.6901 76.9294 54.8899 77.3024 55.2975C77.6754 55.7052 77.8618 56.2567 77.8618 56.9602V60.701H76.8727V57.112C76.8727 56.5685 76.7429 56.1768 76.4754 55.937C76.2159 55.6972 75.8511 55.5693 75.397 55.5693C75.0808 55.5693 74.797 55.6572 74.5457 55.8331C74.2943 56.0089 74.0997 56.2408 73.9619 56.5285C73.8241 56.8163 73.7511 57.112 73.7511 57.4238V60.701H72.7619V54.8739H72.77ZM80.3834 60.4852C79.9375 60.2214 79.5889 59.8537 79.3375 59.3821C79.0862 58.9105 78.9645 58.383 78.9645 57.7994C78.9645 57.2159 79.0862 56.7204 79.3213 56.2408C79.5564 55.7691 79.8889 55.3935 80.3267 55.1057C80.7645 54.8179 81.2591 54.6821 81.8348 54.6821C82.4104 54.6821 82.9131 54.81 83.3429 55.0657C83.7726 55.3215 84.0969 55.6732 84.3239 56.1209C84.551 56.5685 84.6645 57.088 84.6645 57.6636C84.6645 57.7755 84.6564 57.8794 84.632 57.9593H79.9618C79.9861 58.3989 80.0915 58.7746 80.2861 59.0784C80.4807 59.3821 80.724 59.6139 81.024 59.7658C81.324 59.9177 81.6321 59.9976 81.9564 59.9976C82.7104 59.9976 83.2942 59.6459 83.7077 58.9425L84.5428 59.3422C84.2834 59.8138 83.9429 60.1894 83.505 60.4612C83.0672 60.733 82.5402 60.8689 81.924 60.8689C81.3564 60.8689 80.8537 60.733 80.4078 60.4692L80.3834 60.4852ZM83.6104 57.168C83.5942 56.9282 83.5212 56.6804 83.3996 56.4326C83.278 56.1928 83.0834 55.985 82.8158 55.8171C82.5483 55.6493 82.2159 55.5693 81.8105 55.5693C81.3483 55.5693 80.951 55.7132 80.6348 56.0089C80.3105 56.3047 80.0997 56.6884 80.0024 57.168H83.6104ZM85.7915 54.8739H86.732V55.8091H86.7807C86.8942 55.4894 87.1212 55.2256 87.4536 55.0098C87.7861 54.794 88.1347 54.6901 88.4996 54.6901C88.7671 54.6901 89.0023 54.73 89.1968 54.8179V55.8571C88.9455 55.7372 88.6698 55.6732 88.3617 55.6732C88.0779 55.6732 87.8104 55.7532 87.5752 55.913C87.332 56.0729 87.1455 56.2887 86.9996 56.5605C86.8536 56.8323 86.7888 57.12 86.7888 57.4397V60.701H85.7996V54.8739H85.7915Z" fill="#5F6368" stroke="#5F6368" stroke-width="0.179808" stroke-miterlimit="10"/>
<path d="M66.3727 25.8822C66.3727 24.6592 66.1781 23.4842 65.9754 22.3491H49.6621V29.0155H58.8161C58.4107 31.1737 57.3728 33.0042 55.5161 34.2352V38.5835H61.1836C64.4835 35.578 66.3808 31.1338 66.3808 25.8822H66.3727Z" fill="#4284F4"/>
<path d="M49.6054 42.7479C54.3162 42.7479 58.281 41.2211 61.1756 38.5833L55.5081 34.235C53.9513 35.2741 51.9486 35.8816 49.6054 35.8816C45.0649 35.8816 41.2055 32.8522 39.8272 28.7676H34.0056V33.2358C36.8759 38.8791 42.7785 42.7479 49.6054 42.7479Z" fill="#34A853"/>
<path d="M39.8353 28.7756C39.4866 27.7364 39.292 26.6334 39.292 25.4903C39.292 24.3473 39.4866 23.2442 39.8353 22.2051V17.7368H34.0137C32.8299 20.0709 32.157 22.7007 32.157 25.4903C32.157 28.28 32.8299 30.9098 34.0137 33.2438L39.8353 28.7756Z" fill="#FBBC04"/>
<path d="M49.6054 15.0909C52.1676 15.0909 54.4702 15.9621 56.2864 17.6727L61.2891 12.7248C58.2648 9.93518 54.3162 8.22461 49.6054 8.22461C42.7866 8.22461 36.8759 12.0934 34.0056 17.7366L39.8272 22.2049C41.2055 18.1203 45.0568 15.0909 49.6054 15.0909Z" fill="#EA4335"/>
</svg>
